<svg preserveAspectRatio="none" width="100%" height="100%" overflow="visible" style="display: block;" viewBox="0 0 15 15" fill="none" xmlns="http://www.w3.org/2000/svg">
<path id="Vector" d="M5.25 0V1.5H9.75V0H11.25V1.5H14.25C14.4489 1.5 14.6397 1.57902 14.7803 1.71967C14.921 1.86032 15 2.05109 15 2.25V14.25C15 14.4489 14.921 14.6397 14.7803 14.7803C14.6397 14.921 14.4489 15 14.25 15H0.75C0.551088 15 0.360322 14.921 0.21967 14.7803C0.0790176 14.6397 0 14.4489 0 14.25V2.25C0 2.05109 0.0790176 1.86032 0.21967 1.71967C0.360322 1.57902 0.551088 1.5 0.75 1.5H3.75V0H5.25ZM13.5 5.25H1.5V13.5H13.5V5.25ZM9.777 6.852L10.8375 7.9125L7.125 11.625L4.473 8.973L5.535 7.9125L7.12575 9.504L9.77775 6.852H9.777Z" fill="var(--fill-0, #666666)"/>
</svg>
