<svg width="105" height="40" viewBox="0 0 105 40" fill="none" xmlns="http://www.w3.org/2000/svg">
<path d="M30.6534 20.1553C29.2231 26.2852 23.6547 30.7856 16.8946 30.8633C14.6682 30.8632 12.5213 30.3213 10.6134 29.3896C4.33117 26.4413 7.90982 19.3793 19.043 22.4062C25.3252 24.1913 28.7452 22.7168 30.6534 20.1553ZM3.05867 18.6826C2.58073 15.1902 4.96671 10.6889 12.2843 11.9307V21.2422C9.50018 21.6309 7.51243 22.9483 7.03523 24.8877C6.87592 25.5095 6.95545 26.2086 7.19441 26.9072C4.96683 24.8131 3.45614 21.9408 3.05867 18.6826ZM26.7579 7.43066C28.9845 9.5257 30.4943 12.3962 30.8927 15.6553C31.29 19.07 28.9839 23.6482 21.6671 22.4072V13.0957C24.4505 12.7071 26.4389 11.3887 26.9161 9.44824C27.0754 8.75053 26.9968 8.05155 26.7579 7.43066ZM16.9757 3.47266C19.2015 3.47269 21.3498 4.01534 23.2579 4.94629C29.5398 7.81697 25.9616 14.8784 14.9083 11.8525C8.62519 10.0674 5.20515 11.542 3.29695 14.1035C4.72899 8.05129 10.2952 3.47353 16.9757 3.47266Z" fill="#E49F15"/>
<path d="M40.2109 31.9259C40.5976 31.9416 40.9814 31.9963 41.3564 32.088V35.2511C41.3815 35.4274 41.3661 35.6073 41.3115 35.7784C41.257 35.9494 41.1642 36.1055 41.04 36.2364C40.7725 36.4346 40.441 36.535 40.1055 36.5167C39.8943 36.5315 39.6829 36.5315 39.4717 36.5167C39.2784 36.4905 39.0864 36.4509 38.8984 36.3985L38.8232 35.5753H38.9297C39.2437 35.7131 39.5813 35.7932 39.9248 35.8106C40.0624 35.8141 40.1993 35.7787 40.3164 35.7081C40.4166 35.6304 40.4867 35.5208 40.5127 35.3985C40.5404 35.1934 40.5404 34.9855 40.5127 34.7804C40.4375 34.8738 40.345 34.9537 40.2412 35.0157C40.0748 35.1048 39.8889 35.1502 39.6992 35.1485C39.4935 35.1512 39.2903 35.1006 39.1113 35.0021C38.918 34.8964 38.7612 34.7381 38.6592 34.546C38.5249 34.3006 38.4517 34.0288 38.4473 33.7511C38.4375 33.4717 38.4789 33.1932 38.5684 32.9278C38.6435 32.7051 38.7735 32.5032 38.9453 32.339C39.0975 32.1809 39.2899 32.0648 39.5029 32.0011C39.715 31.9251 39.9396 31.8847 40.166 31.8829L40.2109 31.9259ZM61.7275 31.9259C62.1088 31.9425 62.4879 31.9972 62.8584 32.088V35.2511C62.8816 35.4264 62.8663 35.6052 62.8145 35.7745C62.7626 35.9447 62.6747 36.102 62.5566 36.2364C62.2819 36.4311 61.9474 36.5306 61.6074 36.5167C61.3963 36.5315 61.1848 36.5315 60.9736 36.5167C60.7857 36.4905 60.5985 36.4509 60.416 36.3985L60.3252 35.5753H60.4463C60.7559 35.7115 61.0885 35.7914 61.4268 35.8106C61.5644 35.8141 61.7013 35.7787 61.8184 35.7081C61.8703 35.6714 61.9142 35.6256 61.9482 35.5724C61.9822 35.5191 62.0048 35.4605 62.0146 35.3985C62.0433 35.1934 62.0433 34.9855 62.0146 34.7804C61.9296 34.8703 61.8332 34.9493 61.7275 35.0157C61.5666 35.1055 61.3853 35.152 61.2002 35.1485C60.9945 35.152 60.7912 35.1015 60.6123 35.0021C60.4109 34.9025 60.2475 34.7425 60.1445 34.546C60.0157 34.2997 59.9482 34.027 59.9482 33.7511C59.9259 33.4726 59.9634 33.1924 60.0547 32.9278C60.1308 32.7052 60.2589 32.5031 60.4307 32.339C60.5854 32.1845 60.7772 32.0683 60.9883 32.0011C61.2057 31.9234 61.4352 31.8838 61.667 31.8829L61.7275 31.9259ZM82.8359 31.9259C83.218 31.9425 83.5964 31.9972 83.9668 32.088V35.2511C83.9972 35.4274 83.9855 35.6073 83.9336 35.7784C83.8817 35.9493 83.7902 36.1056 83.666 36.2364C83.3912 36.4312 83.0559 36.5307 82.7158 36.5167C82.5046 36.5315 82.2932 36.5315 82.082 36.5167C81.8941 36.4905 81.7069 36.4509 81.5244 36.3985L81.4346 35.5753H81.5547C81.8688 35.7133 82.2071 35.7932 82.5508 35.8106C82.6884 35.8114 82.8235 35.7769 82.9424 35.7081C83.0372 35.6287 83.1007 35.519 83.123 35.3985C83.1517 35.1934 83.1517 34.9855 83.123 34.7804C83.0381 34.8702 82.9424 34.9494 82.8369 35.0157C82.6767 35.1057 82.4939 35.152 82.3086 35.1485C82.1028 35.152 81.8997 35.1016 81.7207 35.0021C81.5194 34.9025 81.3568 34.7424 81.2539 34.546C81.125 34.2997 81.0576 34.027 81.0576 33.7511C81.0433 33.4726 81.079 33.1941 81.1631 32.9278C81.241 32.706 81.37 32.5049 81.54 32.339C81.6948 32.1845 81.8865 32.0683 82.0977 32.0011C82.3151 31.9234 82.5446 31.8838 82.7764 31.8829L82.8359 31.9259ZM98.2295 31.8976C98.6117 31.9142 98.9908 31.9688 99.3613 32.0597L99.2842 32.0714V35.2345C99.3092 35.4109 99.2939 35.5925 99.2393 35.7628C99.1855 35.9338 99.0921 36.0899 98.9678 36.2208C98.7273 36.3911 98.4412 36.488 98.1455 36.5001H97.3848C97.196 36.4739 97.0097 36.4343 96.8271 36.3819L96.752 35.5587H96.8574C97.1716 35.6967 97.5098 35.7776 97.8535 35.795C97.941 35.8193 98.0339 35.8248 98.124 35.8126C98.2151 35.7995 98.3021 35.7688 98.3799 35.7218C98.4344 35.6878 98.4797 35.6421 98.5137 35.589C98.5476 35.5357 98.569 35.4751 98.5762 35.4132C98.6048 35.2081 98.6048 35.0001 98.5762 34.795C98.5001 34.8884 98.4084 34.9684 98.3047 35.0304C98.1383 35.1194 97.9514 35.1649 97.7627 35.1632C97.5569 35.1667 97.3538 35.1162 97.1748 35.0167C96.9743 34.9171 96.81 34.7571 96.707 34.5606C96.5782 34.3144 96.5117 34.0416 96.5117 33.7657C96.4974 33.4872 96.5331 33.2088 96.6172 32.9425C96.6951 32.7207 96.8241 32.5195 96.9941 32.3536C97.1525 32.1957 97.3491 32.0795 97.5664 32.0157C97.7775 31.9372 98.0032 31.8967 98.2295 31.8976ZM43.1973 31.8829C43.9203 31.8829 44.328 32.1775 44.3281 32.7511V33.4278L44.4365 34.4747V35.2687H43.5615V33.7237C43.4552 33.7891 43.3382 33.8388 43.2158 33.8702C43.0422 33.927 42.8753 34.001 42.7178 34.0909C42.673 34.1223 42.6387 34.1651 42.6172 34.214C42.5958 34.2636 42.5887 34.3171 42.5967 34.3702C42.5967 34.4881 42.7325 34.7533 42.959 34.6651C43.1781 34.5798 43.3257 34.5764 43.335 34.5763L43.4717 34.503L43.335 35.2384H42.8525C42.7148 35.2479 42.5759 35.23 42.4463 35.1847C42.3166 35.1384 42.1979 35.0661 42.0986 34.9728C42.0074 34.8872 41.9349 34.7844 41.8857 34.671C41.8366 34.5576 41.8117 34.4346 41.8125 34.3116C41.7964 34.1885 41.8095 34.0624 41.8516 33.9454C41.8936 33.8284 41.9623 33.7212 42.0527 33.6339C42.2756 33.4593 42.5319 33.3298 42.8066 33.2521C43.0294 33.1988 43.2456 33.1238 43.4541 33.0304C43.5597 33.0155 43.5605 32.9422 43.5605 32.8243C43.5604 32.7065 43.514 32.5598 43.1533 32.5597C42.9797 32.5623 42.8061 32.5876 42.6396 32.6339C42.4833 32.6758 42.3314 32.7347 42.1885 32.8097H42.0674V32.0743C42.4306 31.9513 42.8126 31.8864 43.1973 31.8829ZM55.1533 31.8839C55.862 31.8839 56.2694 32.1785 56.2695 32.7521L56.3633 34.4747V35.2687H55.5039V33.7237C55.4037 33.7918 55.2908 33.8414 55.1719 33.8702C54.9976 33.9243 54.8304 33.9976 54.6748 34.0909C54.6265 34.1224 54.5889 34.1684 54.5674 34.2208C54.5459 34.2732 54.5412 34.3309 54.5537 34.3858C54.5538 34.4889 54.599 34.6651 54.9004 34.6651C55.0362 34.6712 55.1722 34.6409 55.292 34.5772L55.4277 34.503L55.2773 35.2384H54.8105C54.67 35.2471 54.5299 35.2281 54.3975 35.1827C54.2651 35.1373 54.1439 35.0662 54.041 34.9737C53.9524 34.8873 53.8825 34.7835 53.8359 34.67C53.7886 34.5566 53.7659 34.4347 53.7686 34.3126C53.7525 34.1895 53.7656 34.0634 53.8076 33.9464C53.8497 33.8294 53.9194 33.7232 54.0098 33.6358C54.2308 33.4577 54.4871 33.3273 54.7627 33.253C54.9847 33.1998 55.2026 33.1258 55.4111 33.0323C55.5166 33.0174 55.5166 32.9432 55.5166 32.8253C55.5164 32.7075 55.4548 32.5616 55.0938 32.5616C54.9202 32.5651 54.7483 32.5895 54.5811 32.6349C54.4272 32.6742 54.2804 32.733 54.1436 32.8106H54.0225V32.0753C54.3858 31.9522 54.7685 31.8874 55.1533 31.8839ZM76.9248 31.3692C77.0392 31.3692 77.15 31.4048 77.2412 31.4718C77.3422 31.5372 77.4175 31.6336 77.4561 31.7452C77.4936 31.857 77.4934 31.979 77.4531 32.0899C77.3815 32.2244 77.2775 32.3396 77.1514 32.4278L77.0293 32.4728C77.2717 32.787 77.4044 33.1688 77.4062 33.5616C77.4465 34.0306 77.294 34.4967 76.9834 34.8565C76.8492 34.9865 76.6879 35.088 76.5117 35.1534C76.3355 35.2188 76.1467 35.249 75.958 35.2394C75.7532 35.2393 75.5511 35.1987 75.3633 35.1202C75.1753 35.0416 75.0057 34.9264 74.8643 34.7823C74.7238 34.6383 74.6146 34.4671 74.543 34.2804C74.4723 34.0927 74.4414 33.8934 74.4512 33.6944C74.4261 33.4595 74.45 33.2215 74.5225 32.9962C74.5949 32.7709 74.7147 32.562 74.873 32.3839C75.0082 32.2494 75.1706 32.1431 75.3496 32.0724C75.5285 32.0017 75.7199 31.9676 75.9131 31.9728C76.1959 31.9675 76.4748 32.0441 76.7129 32.1935C76.7647 32.1612 76.8102 32.1215 76.8486 32.0753C76.8726 32.0405 76.8867 31.9998 76.8867 31.9581C76.8867 31.9162 76.8737 31.8749 76.8486 31.8399H76.7734C76.7199 31.826 76.6628 31.8261 76.6084 31.8399L76.4873 31.5157C76.6179 31.4302 76.7683 31.3797 76.9248 31.3692ZM74.1807 31.3839C74.2987 31.3891 74.4134 31.4237 74.5127 31.4864C74.6147 31.5545 74.691 31.6534 74.7295 31.7677C74.7671 31.8821 74.7658 32.0057 74.7246 32.1192C74.6048 32.3132 74.4256 32.4648 74.2139 32.5548L74.0742 32.6046V35.1349H73.2451V34.8399C73.1404 34.9657 73.0056 35.0652 72.8535 35.129C72.7014 35.1928 72.5357 35.2203 72.3701 35.2081C72.2314 35.2203 72.0915 35.2048 71.96 35.1603C71.8285 35.1157 71.7075 35.0447 71.6064 34.9513C71.5054 34.8587 71.4258 34.7449 71.373 34.6192C71.3203 34.4935 71.2963 34.3581 71.3008 34.2228V32.045H72.1904C72.1904 32.3248 72.1752 33.4136 72.1904 33.796C72.2057 34.1784 72.2657 34.3546 72.6729 34.3546C73.0799 34.3545 73.2304 34.017 73.2305 33.7228C73.2609 33.1648 73.2609 32.6048 73.2305 32.046H74.1045V32.0899C74.1312 32.056 74.1454 32.0154 74.1455 31.9728C74.1455 31.93 74.1313 31.8878 74.1045 31.8546H74.0293C73.9801 31.8415 73.9281 31.8415 73.8789 31.8546L73.7588 31.5304C73.8831 31.4458 74.0287 31.3953 74.1807 31.3839ZM91.3691 31.8829C91.6501 31.8777 91.9273 31.9493 92.1689 32.089C92.3918 32.2287 92.5688 32.4283 92.6807 32.6632C92.8095 32.9208 92.8809 33.2011 92.8926 33.4884C92.906 33.7677 92.8663 34.0471 92.7725 34.3116C92.6803 34.5648 92.5119 34.7855 92.29 34.9444C92.0386 35.1164 91.7367 35.204 91.4307 35.1944C91.2115 35.1988 90.9946 35.1533 90.7969 35.0616C90.6098 34.9821 90.4451 34.8609 90.3145 34.7081C90.1866 34.5615 90.0892 34.3914 90.0283 34.2081C89.9576 34.0186 89.9171 33.8201 89.9072 33.6192C89.8867 33.3171 89.9378 33.015 90.0586 32.7364C90.1525 32.4755 90.3313 32.2505 90.5674 32.0968C90.8035 31.9432 91.0847 31.8673 91.3691 31.8829ZM35.9453 31.6915L36.3682 32.4269L36.8506 33.2804L37.1367 33.796V31.0011H37.9814V32.9728L38.0723 34.0021V35.1202H37.0469L35.4033 32.2804V35.1202H34.5293V31.0001H35.5693L35.9453 31.6915ZM68.9346 32.2364C69.0053 32.1308 69.0978 32.0408 69.2061 31.9718C69.4065 31.8722 69.629 31.8218 69.8545 31.8253C70.1327 31.8158 70.4057 31.9042 70.623 32.0753C70.7275 32.1773 70.8087 32.2985 70.8633 32.4327C70.9179 32.5671 70.9439 32.7106 70.9395 32.8546L70.9863 34.3712V35.0626H70.0664V33.2384C70.0709 33.0742 70.018 32.9133 69.916 32.7823C69.8686 32.7369 69.8107 32.7028 69.748 32.6827C69.6856 32.6628 69.6188 32.6564 69.5537 32.6642C69.4705 32.6589 69.3878 32.6762 69.3135 32.712C69.2393 32.7487 69.1765 32.8022 69.1309 32.8702C69.0083 33.0911 68.9466 33.3394 68.9502 33.5909C68.9198 34.0564 68.9198 34.5229 68.9502 34.9884V35.0616H68.0449V30.9425H68.9346V32.2364ZM66.7021 30.9269C66.8865 30.9269 67.0654 30.9833 67.2148 31.089C67.3679 31.185 67.489 31.3231 67.5615 31.4864C67.6191 31.6231 67.6595 31.7661 67.6816 31.9122L67.6826 32.0157C67.6942 32.241 67.6576 32.4665 67.5762 32.6778C67.4965 32.89 67.3493 33.0712 67.1543 33.1935C66.8384 33.3812 66.4629 33.4495 66.0986 33.3849L65.9336 32.6495C66.0614 32.6983 66.2009 32.7085 66.335 32.6798C66.469 32.651 66.5917 32.5841 66.6865 32.4874C66.7823 32.3608 66.8255 32.2023 66.8076 32.046C66.8139 31.984 66.8057 31.9219 66.7852 31.8634C66.7646 31.8049 66.7304 31.7517 66.6865 31.7071C66.5801 31.6391 66.4522 31.6088 66.3252 31.6192H65.8428V31.9425C65.8428 32.1774 65.918 34.6794 65.918 34.9737V35.047H65.0283V30.9269H66.7021ZM58.5459 31.8839C58.7553 31.876 58.9641 31.9215 59.1494 32.0167C59.305 32.0962 59.4281 32.2259 59.4961 32.3839C59.5766 32.5445 59.618 32.7214 59.6162 32.8995C59.6234 33.0322 59.6234 33.1643 59.6162 33.297L59.7227 34.5157V35.045H58.8027V34.9718C58.8027 34.3091 58.8179 33.5888 58.8027 33.2062C58.7875 32.8238 58.6518 32.6467 58.3057 32.6466C57.9584 32.6466 57.6865 32.868 57.6865 33.3536V34.5304C57.6785 34.6282 57.6785 34.7275 57.6865 34.8253V35.046H56.7822V31.9571H57.6562V32.2813C57.7582 32.1478 57.8933 32.0408 58.0488 31.9718C58.2045 31.9028 58.3759 31.8726 58.5459 31.8839ZM79.6543 31.8839C79.8636 31.8735 80.0717 31.9198 80.2568 32.0167C80.4126 32.1005 80.5395 32.2284 80.6191 32.3839C80.6854 32.5481 80.721 32.7231 80.7246 32.8995C80.7326 33.0322 80.7327 33.1652 80.7246 33.297L80.8154 34.5167V35.046H79.8955V34.9728C79.8955 34.3099 79.9107 33.5887 79.8955 33.2062C79.8802 32.824 79.7437 32.6476 79.3975 32.6476C79.0504 32.6478 78.7949 32.8692 78.7949 33.3546C78.7869 33.4626 78.7869 33.5706 78.7949 33.6778V34.5313C78.7878 34.6195 78.7878 34.7078 78.7949 34.796V35.046H77.8896V31.9571H78.7646V32.2813C78.8667 32.1477 79.0015 32.0408 79.1572 31.9718C79.313 31.9028 79.4843 31.8725 79.6543 31.8839ZM95.0176 31.8839C95.2323 31.8778 95.4442 31.9233 95.6357 32.0167C95.7816 32.1084 95.9011 32.2346 95.9834 32.3839C96.0496 32.5481 96.0853 32.7231 96.0889 32.8995C96.096 33.0322 96.096 33.1643 96.0889 33.297L96.21 34.5167C96.2189 34.6686 96.2189 34.8208 96.21 34.9728V35.046H95.2744V34.9728C95.2744 34.2959 95.2896 33.5887 95.2744 33.2062C95.2591 32.824 95.1235 32.6476 94.7764 32.6476C94.4292 32.6477 94.1582 32.8692 94.1582 33.3546V35.046H93.2529V31.9571H94.1279V32.2813C94.2299 32.1478 94.3649 32.0408 94.5205 31.9718C94.6762 31.9028 94.8475 31.8725 95.0176 31.8839ZM87.917 30.9132C88.1425 30.9071 88.3687 30.9443 88.5781 31.0255C88.7883 31.1058 88.9785 31.2286 89.1387 31.3839L89.1982 31.2804C89.5597 31.6882 89.7489 32.2142 89.7266 32.7521C89.7471 33.1458 89.6912 33.5405 89.5605 33.9142C89.4388 34.2442 89.2186 34.5313 88.9277 34.7374C88.593 34.9391 88.2053 35.0419 87.8115 35.0323H86.3047V33.2813H85.792V32.546H86.1533V30.9132H87.917ZM46.6201 31.8399C46.8294 31.8339 47.0367 31.8794 47.2227 31.9728C47.3712 32.0609 47.4915 32.1881 47.5693 32.3399C47.6365 32.505 47.677 32.6792 47.6904 32.8556V33.9581L47.751 34.4718V35.0011H46.8311V34.9278C46.8311 34.2651 46.8463 33.5448 46.8311 33.1622C46.8158 32.7797 46.6794 32.6026 46.333 32.6026C45.9859 32.6027 45.7305 32.8242 45.7305 33.3097C45.7224 33.418 45.7224 33.5265 45.7305 33.6339V35.0021H44.8408V31.9132H45.7148V32.2374C45.8205 32.1029 45.9578 31.9949 46.1162 31.9259C46.2736 31.857 46.4476 31.8277 46.6201 31.8399ZM53.3281 34.9874H52.3633V33.1778H50.7803V34.5313C50.7865 34.6396 50.7865 34.7482 50.7803 34.8556V34.9884H49.8311V30.8692H50.7803V32.4728H52.2881V31.0011L53.3281 30.8683V34.9874ZM76.0215 32.6632C75.95 32.6606 75.8776 32.6721 75.8105 32.6974C75.7427 32.7226 75.6817 32.761 75.6299 32.8106C75.4455 33.056 75.364 33.362 75.4033 33.6642C75.4328 34.0326 75.6134 34.4734 76.0508 34.4737C76.1233 34.4781 76.1966 34.4678 76.2646 34.4425C76.3316 34.4171 76.3933 34.3768 76.4434 34.3263C76.6241 34.0897 76.7048 33.7945 76.6699 33.5021C76.6556 33.2523 76.5639 32.6632 76.0215 32.6632ZM61.7139 32.6778C61.5609 32.6752 61.4106 32.7107 61.2764 32.7813C61.143 32.8556 61.0373 32.9693 60.9746 33.1056C60.8807 33.3029 60.8392 33.5201 60.8535 33.7374C60.8428 33.9409 60.9129 34.1414 61.0498 34.296C61.1008 34.351 61.1646 34.3953 61.2344 34.4259C61.304 34.4563 61.3793 34.4719 61.4561 34.4728C61.5293 34.4701 61.6008 34.4521 61.666 34.419C61.7314 34.3859 61.7883 34.3381 61.833 34.2813C61.9276 34.1648 61.992 34.0283 62.0234 33.8839L62.0596 33.7081V32.6778C61.9452 32.6604 61.8282 32.6604 61.7139 32.6778ZM82.8213 32.6778C82.6683 32.6753 82.518 32.7106 82.3838 32.7813C82.2505 32.8556 82.1447 32.9694 82.082 33.1056C81.9882 33.3028 81.9476 33.5201 81.9619 33.7374C81.9512 33.9408 82.0205 34.1415 82.1572 34.296C82.2117 34.3518 82.2773 34.3963 82.3496 34.4269C82.4221 34.4574 82.5013 34.4736 82.5801 34.4728C82.6507 34.4675 82.7196 34.4483 82.7822 34.4151C82.844 34.3828 82.8984 34.3364 82.9414 34.2813C83.0313 34.1621 83.0951 34.0263 83.1289 33.8829L83.1689 33.7081V32.6778C83.0535 32.6595 82.9359 32.6595 82.8213 32.6778ZM40.167 32.7071C40.014 32.7028 39.8628 32.7381 39.7295 32.8097C39.5881 32.8787 39.4757 32.9933 39.4121 33.1339C39.3245 33.3328 39.288 33.5502 39.3066 33.7657C39.2959 33.9692 39.366 34.1707 39.5029 34.3253C39.5674 34.3803 39.6464 34.4183 39.7305 34.4366C39.8155 34.4549 39.903 34.4514 39.9854 34.4278C40.0586 34.4252 40.1301 34.4072 40.1953 34.3741C40.2606 34.341 40.3176 34.2941 40.3623 34.2374C40.4529 34.1196 40.5143 33.9827 40.542 33.839L40.499 33.7364C40.5259 33.3942 40.5259 33.0494 40.499 32.7071C40.389 32.6888 40.2771 32.6888 40.167 32.7071ZM98.1709 32.6329C98.0134 32.6285 97.8575 32.6639 97.7188 32.7364C97.5854 32.8107 97.4796 32.9244 97.417 33.0606C97.3232 33.2579 97.2816 33.4752 97.2959 33.6925C97.2852 33.8958 97.3554 34.0965 97.4922 34.2511C97.5468 34.307 97.6121 34.3523 97.6846 34.3829C97.7571 34.4135 97.8363 34.4287 97.915 34.4278C97.9857 34.4226 98.0546 34.4034 98.1172 34.3702C98.1789 34.337 98.2334 34.2914 98.2764 34.2364C98.3711 34.1197 98.4363 33.9835 98.4678 33.839L98.5029 33.6632V32.6329C98.3929 32.6155 98.2809 32.6155 98.1709 32.6329ZM91.3994 32.5753C91.3054 32.5692 91.2112 32.5893 91.1289 32.6339C91.0458 32.6784 90.9773 32.7441 90.9316 32.8243C90.7947 33.0558 90.738 33.3244 90.7666 33.5899C90.7693 33.8056 90.8367 34.0162 90.9619 34.1935C91.0156 34.2642 91.0865 34.322 91.168 34.3604C91.2494 34.3989 91.3403 34.4168 91.4307 34.4142C91.5263 34.4211 91.6218 34.3973 91.7031 34.3468C91.7643 34.3087 91.8154 34.2576 91.8516 34.1974V34.1935C91.9625 33.9742 92.0097 33.7292 91.9873 33.4864C91.9917 33.2656 91.934 33.0466 91.8213 32.8546C91.7819 32.776 91.7218 32.7082 91.6484 32.6593C91.5743 32.6106 91.4886 32.5823 91.3994 32.5753ZM87.1338 32.5021H88.0088V33.2521H87.1494V34.2228H87.6318C87.8941 34.2332 88.1526 34.1608 88.3701 34.0167C88.5062 33.9133 88.6142 33.7808 88.6865 33.63L88.7168 33.6056C88.7937 33.3628 88.8236 33.1088 88.8066 32.8556C88.8371 32.6182 88.8168 32.3782 88.7471 32.1495C88.6898 31.9906 88.5916 31.8473 88.4609 31.7364C88.3124 31.6316 88.1308 31.5803 87.9482 31.5899H87.1338V32.5021ZM55.5 31.6632H54.8057L54.1729 30.9278H55.168L55.5 31.6632ZM43.8457 31.589H43.2578L43.0312 31.3243L42.8359 31.589H42.2334L42.5342 30.9269H43.499L43.8457 31.589ZM92.124 31.589H91.5361L91.3252 31.3243L91.1143 31.589H90.5254L90.8271 30.9269H91.792L92.124 31.589ZM46.5898 6.37217C53.2533 6.37217 58.6523 11.2422 58.6523 17.2149C58.6523 23.1877 53.2238 28.0577 46.5898 28.0577C39.956 28.0576 34.5274 23.1876 34.5273 17.2149C34.5273 11.2423 39.9104 6.37227 46.5898 6.37217ZM72.1162 6.34189C74.2079 6.33403 76.2733 6.80266 78.1475 7.71006V11.9181C76.7324 10.8247 74.9771 10.2335 73.1719 10.2413C71.2153 10.1741 69.3108 10.8679 67.877 12.17C66.4433 13.4721 65.5982 15.2759 65.5273 17.1856C65.6016 19.0939 66.4479 20.8961 67.8809 22.1974C69.3138 23.4985 71.2155 24.1937 73.1719 24.13C74.9771 24.1378 76.7315 23.5466 78.1475 22.4532V26.6437C76.2777 27.5633 74.2106 28.0361 72.1162 28.0265C65.3009 28.0263 59.7678 23.172 59.7676 17.1847C59.7676 11.1972 65.3016 6.34207 72.1162 6.34189ZM92.3213 6.88682C93.985 6.78822 95.6283 7.27944 96.9502 8.27061C97.4763 8.73341 97.8976 9.2984 98.1885 9.92881C98.4793 10.5593 98.6323 11.2421 98.6377 11.9337C98.7191 13.1221 98.3903 14.304 97.7031 15.2882C97.2091 15.9231 96.5603 16.428 95.8174 16.7599C96.2827 16.9284 96.7245 17.1563 97.1299 17.4366C97.8289 17.91 98.3948 18.5479 98.7734 19.2911C99.135 19.9897 99.3354 20.7588 99.3613 21.5421L99.4072 21.5108C99.5003 22.6548 99.1918 23.7961 98.5322 24.7472C97.7795 25.7349 96.7231 26.4616 95.5166 26.8214C94.0032 27.2964 92.4185 27.5202 90.8281 27.4835H80.3643V6.88682H92.3213ZM86.0615 10.0655V24.2784H89.5146C92.1228 24.2784 93.6309 23.4241 93.6309 21.4679C93.6307 19.511 92.2589 18.6583 89.6357 18.6583H86.6201L88.1289 14.8028H89.5312C91.9279 14.8028 92.954 14.1262 92.9541 12.4933C92.9541 10.5658 92.0628 10.0362 89.4395 10.0362L86.0615 10.0655ZM46.5898 10.2716C44.8052 10.3738 43.1348 11.1627 41.9453 12.464C40.756 13.7652 40.1437 15.4746 40.2422 17.2159C40.1519 18.952 40.7686 20.6533 41.957 21.9483C43.0713 23.1625 44.6045 23.9275 46.2578 24.1026L46.5898 24.1007C48.3681 23.9985 50.0341 23.2141 51.2227 21.919C52.4121 20.6239 53.0279 18.9218 52.9375 17.1856C53.0278 15.4496 52.4112 13.7483 51.2227 12.4532C50.0341 11.1582 48.3691 10.3738 46.5898 10.2716Z" fill="#008C4F"/>
</svg>
