<svg width="105" height="40" viewBox="0 0 105 40" fill="none" xmlns="http://www.w3.org/2000/svg">
<path fill-rule="evenodd" clip-rule="evenodd" d="M27.1525 22.2402C26.2123 22.2402 25.4512 22.9878 25.4512 23.9112C25.4512 24.8346 26.2137 25.5822 27.1525 25.5822H30.2137V22.2416H27.1525V22.2402ZM27.1525 24.7467C26.6824 24.7467 26.3018 24.3729 26.3018 23.9112C26.3018 23.4495 26.6824 23.0757 27.1525 23.0757C27.6226 23.0757 28.0031 23.4495 28.0031 23.9112C28.0031 24.3729 27.6226 24.7467 27.1525 24.7467Z" fill="url(#paint0_linear_2924_37618)"/>
<path fill-rule="evenodd" clip-rule="evenodd" d="M27.1526 21.5726H30.2138V15.224C30.2138 14.8558 29.9087 14.5562 29.5338 14.5562H4.36131C4.36131 14.0025 4.81744 13.5545 5.38123 13.5545H6.32286L7.68135 12.5527H5.0413C3.9136 12.5527 3 13.45 3 14.5576V27.9211V31.2616C3 32.3692 3.9136 33.2665 5.0413 33.2665H28.1725C29.3002 33.2665 30.2138 32.3692 30.2138 31.2616V26.2502H27.1526C25.8374 26.2502 24.7713 25.2031 24.7713 23.9113C24.7713 22.6197 25.8374 21.5726 27.1526 21.5726Z" fill="url(#paint1_linear_2924_37618)"/>
<path fill-rule="evenodd" clip-rule="evenodd" d="M30.2135 12.5513H26.7773L27.0949 13.553H30.2122C30.776 13.553 31.2321 14.0024 31.2321 14.5548V21.5712L30.2122 22.239V25.5795L31.2321 24.9117V30.3052C31.8617 29.6992 32.252 28.8541 32.252 27.9197V14.5548C32.2548 13.45 31.3412 12.5513 30.2135 12.5513Z" fill="#5EAE46"/>
<path fill-rule="evenodd" clip-rule="evenodd" d="M19.2879 5L22.7548 9.80945L12.1917 14.0707H6.98145L19.2879 5ZM26.219 14.0542H14.3295L24.8926 9.77785L26.219 14.0542Z" fill="url(#paint2_linear_2924_37618)"/>
<path fill-rule="evenodd" clip-rule="evenodd" d="M10.7959 28.0863C10.8659 28.5287 10.9778 28.9561 11.1275 29.3629C11.7011 28.0519 12.6833 26.9416 13.9341 26.2161C13.9229 25.6252 13.9887 25.0453 14.123 24.4888C12.9547 24.7595 11.8522 25.1759 10.8351 25.7186C10.6882 26.4785 10.6672 27.2769 10.7959 28.0863Z" fill="white"/>
<path fill-rule="evenodd" clip-rule="evenodd" d="M10.2417 22.1702C9.85135 22.2334 9.46658 22.3145 9.08886 22.4093C8.76426 23.4743 8.56838 24.5887 8.5166 25.732C9.99129 24.8182 11.6674 24.1751 13.4848 23.8838C13.7716 23.837 14.057 23.8027 14.3425 23.7752C14.5383 23.2489 14.7859 22.7487 15.098 22.287C13.5436 21.96 11.9038 21.9064 10.2417 22.1702Z" fill="white"/>
<path fill-rule="evenodd" clip-rule="evenodd" d="M19.4928 21.6367H18.4561L15.8496 26.2648H16.9199L17.8223 24.5774H20.0469L20.9311 26.2648H22.1357L19.4928 21.6367ZM18.2322 23.7927L18.9388 22.5395L19.602 23.7927H18.2322Z" fill="white"/>
<path fill-rule="evenodd" clip-rule="evenodd" d="M17.2393 20.2615C15.0581 18.1096 12.1732 16.7162 9.0392 16.418C8.05285 17.9241 7.36311 19.6294 7.03711 21.4405C7.61771 21.2646 8.21653 21.1244 8.83215 21.0255C11.1812 20.649 13.4841 20.906 15.5716 21.6686C16.0431 21.1175 16.6055 20.6407 17.2393 20.2615Z" fill="white"/>
<path d="M93.5241 18.3979V20.238H89.661V26.6717H87.7881V27.0028H89.9954V20.5664H93.8554V18.3979H93.5241Z" fill="#0B783D"/>
<path d="M87.0478 20.2383H83.8301V20.5667H87.0478V20.2383Z" fill="#0B783D"/>
<path d="M97.276 17.479H99.1716L104 25.7527H101.799L100.177 22.7351H96.1398L94.4693 25.7527H92.5166L97.276 17.479ZM99.3649 21.3321L98.1588 19.0882L96.887 21.3321H99.3649Z" fill="#0B783D"/>
<path d="M42.2387 17.479H44.1331L48.9614 25.7527H46.7591L45.1446 22.7351H41.0802L39.4335 25.7527H37.4775L42.2387 17.479ZM44.3331 21.3321L43.1215 19.0881L41.8287 21.3321H44.3331Z" fill="#0B783D"/>
<path d="M49.789 17.479H57.0109C57.3299 17.479 57.5821 17.4927 57.7612 17.5271C57.9428 17.5601 58.1133 17.6219 58.2728 17.714C58.5109 17.8459 58.6747 18.03 58.7642 18.2609C58.8507 18.489 58.8968 18.8394 58.8968 19.3012V21.2717C58.8968 21.5534 58.8857 21.7718 58.8618 21.9216C58.8397 22.0755 58.7949 22.2198 58.7305 22.3613C58.6103 22.6293 58.4201 22.8162 58.16 22.9233C57.8956 23.0292 57.5134 23.0828 57.0097 23.0828H51.7407V25.7527H49.7861V17.479H49.789ZM56.1171 21.3321C56.4122 21.3321 56.625 21.284 56.7496 21.1892C56.8753 21.093 56.9367 20.9405 56.9367 20.7275V19.9181C56.9367 19.7037 56.8753 19.5512 56.7496 19.4619C56.6238 19.3712 56.4122 19.3259 56.1171 19.3259H51.7434V21.3321H56.1171Z" fill="#0B783D"/>
<path d="M60.8223 17.479H68.0454C68.3644 17.479 68.6165 17.4927 68.7957 17.5271C68.9773 17.5601 69.1466 17.6219 69.3073 17.714C69.5496 17.8459 69.7092 18.03 69.7999 18.2609C69.8895 18.489 69.9331 18.8394 69.9331 19.3012V21.2717C69.9331 21.5534 69.9214 21.7718 69.9006 21.9216C69.8766 22.0755 69.8306 22.2198 69.7662 22.3613C69.6472 22.6293 69.457 22.8162 69.1957 22.9233C68.9337 23.0292 68.5521 23.0828 68.0466 23.0828H62.7793V25.7527H60.8235V17.479H60.8223ZM67.1503 21.3321C67.4466 21.3321 67.6564 21.284 67.781 21.1892C67.9067 21.093 67.9699 20.9405 67.9699 20.7275V19.9181C67.9699 19.7037 67.9067 19.5512 67.781 19.4619C67.6552 19.3712 67.4466 19.3259 67.1503 19.3259H62.778V21.3321H67.1503Z" fill="#0B783D"/>
<path d="M81.7039 23.9277C81.7039 24.2672 81.672 24.5543 81.6064 24.7866C81.5462 25.0202 81.4413 25.2084 81.2929 25.3486C81.1487 25.4929 80.9573 25.596 80.7205 25.6592C80.4855 25.7224 80.1929 25.7513 79.8475 25.7513H73.5348C73.1876 25.7513 72.898 25.721 72.6673 25.6592C72.4324 25.596 72.2465 25.4929 72.1005 25.3486C71.9551 25.2071 71.8502 25.0202 71.7845 24.7866C71.7201 24.5543 71.6895 24.2672 71.6895 23.9277V19.3011C71.6895 18.6305 71.8263 18.1605 72.1005 17.887C72.3735 17.6136 72.852 17.4775 73.5348 17.4775H79.8475C80.1929 17.4775 80.4855 17.5091 80.7205 17.5751C80.9573 17.6438 81.1487 17.7455 81.2929 17.8857C81.4413 18.0245 81.5462 18.2141 81.6064 18.449C81.672 18.6827 81.7039 18.9671 81.7039 19.2996V23.9277ZM79.7512 23.9168V19.3258H73.6465V23.9168H79.7512Z" fill="#0B783D"/>
<path d="M88.7205 25.7514H86.7525V19.3259H82.8906V17.479H92.5891V19.3259H88.7205V25.7514Z" fill="#0B783D"/>
<defs>
<linearGradient id="paint0_linear_2924_37618" x1="30.2142" y1="23.9111" x2="25.4512" y2="23.9111" gradientUnits="userSpaceOnUse">
<stop stop-color="#5EAE46"/>
<stop offset="1" stop-color="#0F542D"/>
</linearGradient>
<linearGradient id="paint1_linear_2924_37618" x1="16.6072" y1="12.5519" x2="16.6072" y2="33.2662" gradientUnits="userSpaceOnUse">
<stop stop-color="#5EAE46"/>
<stop offset="1" stop-color="#0F542D"/>
</linearGradient>
<linearGradient id="paint2_linear_2924_37618" x1="6.98095" y1="9.53571" x2="26.2191" y2="9.53571" gradientUnits="userSpaceOnUse">
<stop stop-color="#5EAE46"/>
<stop offset="1" stop-color="#0F542D"/>
</linearGradient>
</defs>
</svg>
