<svg width="105" height="40" viewBox="0 0 105 40" fill="none" xmlns="http://www.w3.org/2000/svg">
<mask id="mask0_2924_37586" style="mask-type:luminance" maskUnits="userSpaceOnUse" x="3" y="3" width="101" height="34">
<path d="M103.303 3H3.69629V37H103.303V3Z" fill="white"/>
</mask>
<g mask="url(#mask0_2924_37586)">
<path d="M36.7864 29.948C36.7864 29.948 36.846 29.9952 36.8816 29.9952H37.941C37.941 29.9952 38.0362 29.9717 38.06 29.9245C38.0839 29.8775 38.0719 29.8303 38.06 29.7951L37.0364 28.4293C37.0364 28.4293 36.9768 28.3823 36.9293 28.3823H35.7747C35.7747 28.3823 35.6794 28.4058 35.6557 28.4528C35.6317 28.5 35.6436 28.5472 35.6676 28.5824L36.7864 29.948Z" fill="#2B3278"/>
<path d="M61.8796 28.8298C61.8796 28.8298 61.963 28.9005 62.0107 28.8885C62.2009 28.8415 62.3677 28.818 62.5106 28.818C62.6652 28.818 62.7129 28.8533 62.7129 28.8533C62.7129 28.8533 62.7129 28.8533 62.7129 28.8768C62.7129 28.8885 62.7129 28.9122 62.689 28.9239C62.6652 28.9357 62.6177 28.9827 62.4629 29.0416C62.3201 29.1005 62.213 29.1593 62.1416 29.2065C62.0582 29.2654 61.9986 29.3478 61.9392 29.4655C61.8796 29.5714 61.8559 29.7127 61.8559 29.8893C61.8559 29.9598 61.9155 30.007 61.9749 30.007H62.6533C62.7248 30.007 62.7723 29.9481 62.7723 29.8776C62.7963 29.8539 62.8438 29.8304 62.9034 29.8069C63.177 29.689 63.3675 29.5714 63.4867 29.4537C63.6175 29.3241 63.6771 29.1358 63.6771 28.8768C63.6771 28.4529 63.4748 27.9351 62.5462 27.9351C62.201 27.9351 61.8796 27.9938 61.5939 28.1234C61.5583 28.1351 61.5345 28.1586 61.5225 28.1941C61.5225 28.2293 61.5225 28.2645 61.5225 28.2882L61.8321 28.8298H61.8796Z" fill="#2B3278"/>
<path d="M80.8295 28.6064C80.7105 28.5476 80.5794 28.5122 80.4485 28.5122C80.2343 28.5122 80.0557 28.5829 79.9009 28.7242C79.7463 28.8654 79.6748 29.042 79.6748 29.254C79.6748 29.4659 79.7463 29.6307 79.9009 29.7836C80.0557 29.925 80.2343 30.0074 80.4485 30.0074C80.6627 30.0074 80.8413 29.9367 80.9962 29.7836C81.1508 29.6425 81.2222 29.4659 81.2222 29.254C81.2222 29.1127 81.1866 28.995 81.1151 28.8771C81.0437 28.7712 80.9484 28.6771 80.8295 28.6064Z" fill="#2B3278"/>
<path d="M82.6157 29.9952H83.6988C83.6988 29.9952 83.7822 29.9717 83.8061 29.948L84.2942 29.2888L84.7822 29.948C84.7822 29.948 84.8416 29.9952 84.8893 29.9952H85.9725C85.9725 29.9952 86.0677 29.9717 86.0915 29.9245C86.1152 29.8775 86.1033 29.8303 86.0796 29.7951L84.9606 28.4293C84.9606 28.4293 84.9012 28.3823 84.8653 28.3823H83.7703C83.7703 28.3823 83.6988 28.3941 83.6751 28.4293L82.5563 29.7951C82.5563 29.7951 82.5204 29.8892 82.5444 29.9245C82.5681 29.9717 82.6157 29.9952 82.6634 29.9952H82.6157Z" fill="#2B3278"/>
<path d="M16.7183 29.9952H17.8015C17.8015 29.9952 17.8848 29.9717 17.9086 29.948L18.3966 29.2888L18.8847 29.948C18.8847 29.948 18.9442 29.9952 18.9918 29.9952H20.075C20.075 29.9952 20.1702 29.9717 20.194 29.9245C20.2178 29.8775 20.2059 29.8303 20.1821 29.7951L19.0632 28.4293C19.0632 28.4293 19.0037 28.3823 18.968 28.3823H17.8729C17.8729 28.3823 17.8015 28.3941 17.7777 28.4293L16.6588 29.7951C16.6588 29.7951 16.6231 29.8892 16.6468 29.9245C16.6707 29.9717 16.7183 29.9952 16.7659 29.9952H16.7183Z" fill="#2B3278"/>
<path d="M9.33843 28.7944H8.04099C7.95765 28.7944 7.89814 28.8534 7.89814 28.9358V32.5971L5.14849 28.8534C5.14849 28.8534 5.07707 28.7944 5.02945 28.7944H3.83913C3.75581 28.7944 3.69629 28.8534 3.69629 28.9358V35.1401C3.69629 35.2225 3.75581 35.2814 3.83913 35.2814H5.13658C5.21991 35.2814 5.27942 35.2225 5.27942 35.1401V31.514L8.02907 35.2225C8.02907 35.2225 8.1005 35.2814 8.14811 35.2814H9.33843C9.42176 35.2814 9.48128 35.2225 9.48128 35.1401V28.9358C9.48128 28.8534 9.42176 28.7944 9.33843 28.7944Z" fill="#2B3278"/>
<path d="M15.123 30.5605H13.8731C13.7898 30.5605 13.7303 30.6195 13.7303 30.7019V30.8667C13.3375 30.5842 12.8971 30.4546 12.4329 30.4429C11.8258 30.4429 11.314 30.6784 10.9212 31.1375C10.5403 31.5849 10.3379 32.1499 10.3379 32.821C10.3379 33.4919 10.5283 34.0572 10.9212 34.5045C11.314 34.9636 11.8139 35.1992 12.4329 35.1992C12.8971 35.1992 13.3375 35.0578 13.7303 34.7753V34.9164C13.7303 35.2344 13.6827 35.4934 13.5041 35.6228C13.2304 35.8114 12.6709 35.7994 11.9567 35.5641C11.6234 35.4582 11.2902 35.3051 10.9807 35.1285C10.933 35.105 10.8854 35.105 10.8378 35.1285C10.7902 35.152 10.7664 35.1992 10.7664 35.2461L10.6831 36.1763C10.6831 36.1763 10.7069 36.2705 10.7426 36.3057C11.433 36.7766 12.1829 37.0238 12.9685 37.0238C13.6351 37.0238 14.2065 36.8472 14.635 36.4706C15.0635 36.0939 15.2777 35.5406 15.2777 34.8105V30.7371C15.2777 30.6547 15.2182 30.596 15.1349 30.596L15.123 30.5605ZM13.2423 31.9026C13.4208 31.9733 13.5756 32.0792 13.7184 32.1971V33.4919C13.5756 33.6216 13.4089 33.7275 13.2423 33.7982C12.7662 33.9982 12.3495 33.9513 12.1234 33.6451C11.9805 33.4567 11.8972 33.1859 11.8972 32.8445C11.8972 32.6209 11.9329 32.4206 12.0043 32.2558C12.0639 32.1029 12.1591 31.985 12.2781 31.9026C12.3972 31.8202 12.5281 31.7849 12.7066 31.7849C12.8852 31.7849 13.0637 31.8202 13.2542 31.9026H13.2423Z" fill="#2B3278"/>
<path d="M50.5956 30.5605H49.3457C49.2624 30.5605 49.203 30.6195 49.203 30.7019V30.8667C48.8102 30.5842 48.3697 30.4546 47.9054 30.4429C47.2984 30.4429 46.7866 30.6784 46.3938 31.1375C46.0129 31.5849 45.8105 32.1499 45.8105 32.821C45.8105 33.4919 46.001 34.0572 46.3938 34.5045C46.7866 34.9636 47.2865 35.1992 47.9054 35.1992C48.3697 35.1992 48.8102 35.0578 49.203 34.7753V34.9164C49.203 35.2344 49.1553 35.4934 48.9769 35.6228C48.7031 35.8114 48.1436 35.7994 47.4295 35.5641C47.0961 35.4582 46.7629 35.3051 46.4534 35.1285C46.4057 35.105 46.3582 35.105 46.3105 35.1285C46.2629 35.152 46.239 35.1992 46.239 35.2461L46.1556 36.1763C46.1556 36.1763 46.1796 36.2705 46.2152 36.3057C46.9056 36.7766 47.6556 37.0238 48.4412 37.0238C49.1078 37.0238 49.6792 36.8472 50.1076 36.4706C50.5362 36.0939 50.7504 35.5406 50.7504 34.8105V30.7371C50.7504 30.6547 50.6908 30.596 50.6075 30.596L50.5956 30.5605ZM48.715 31.9026C48.8936 31.9733 49.0482 32.0792 49.1911 32.1971V33.4919C49.0482 33.6216 48.8817 33.7275 48.715 33.7982C48.2388 33.9982 47.8223 33.9513 47.596 33.6451C47.4532 33.4567 47.3699 33.1859 47.3699 32.8445C47.3699 32.6209 47.4055 32.4206 47.477 32.2558C47.5366 32.1029 47.6318 31.985 47.7508 31.9026C47.8698 31.8202 48.0006 31.7849 48.1792 31.7849C48.3578 31.7849 48.5364 31.8202 48.7268 31.9026H48.715Z" fill="#2B3278"/>
<path d="M20.7049 30.5605H19.455C19.3717 30.5605 19.3122 30.6195 19.3122 30.7019V30.8785C18.9194 30.5842 18.4789 30.4429 18.0147 30.4429C17.4076 30.4429 16.9077 30.6901 16.5149 31.1727C16.134 31.6438 15.9316 32.2323 15.9316 32.9269C15.9316 33.3743 16.015 33.7982 16.1816 34.1631C16.3483 34.5398 16.5982 34.846 16.9196 35.0696C17.241 35.2933 17.61 35.411 18.0147 35.411C18.4789 35.411 18.9194 35.2579 19.3122 34.9754V35.152C19.3122 35.2344 19.3717 35.2933 19.455 35.2933H20.7049C20.7882 35.2933 20.8477 35.2344 20.8477 35.152V30.7254C20.8477 30.643 20.7882 30.5842 20.7049 30.5842V30.5605ZM17.491 32.9152C17.491 32.5503 17.5624 32.2558 17.7171 32.0557C17.86 31.8556 18.0385 31.7615 18.2885 31.7615C18.4551 31.7615 18.6337 31.8084 18.8241 31.8909C19.0027 31.9733 19.1693 32.0792 19.3122 32.2088V33.6333C19.2169 33.7157 19.1098 33.7982 19.0027 33.8571C18.8717 33.9276 18.7408 33.9865 18.6218 34.0217C18.3123 34.1159 18.0504 34.0807 17.86 33.9393C17.7409 33.8451 17.6457 33.7275 17.5862 33.5509C17.5148 33.3743 17.491 33.1625 17.491 32.9152Z" fill="#2B3278"/>
<path d="M25.5035 30.6308C25.0393 30.3835 24.4085 30.3718 23.7895 30.6308C23.5871 30.7132 23.3967 30.8191 23.2181 30.9488V30.7132C23.2181 30.6308 23.1586 30.5719 23.0753 30.5719H21.8255C21.7421 30.5719 21.6826 30.6308 21.6826 30.7132V35.1398C21.6826 35.2222 21.7421 35.2812 21.8255 35.2812H23.0753C23.1586 35.2812 23.2181 35.2222 23.2181 35.1398V32.173C23.5514 31.9259 23.8966 31.7845 24.218 31.7845C24.3966 31.7845 24.5393 31.8317 24.6465 31.9376C24.7536 32.0436 24.8013 32.1967 24.8013 32.4085V35.1398C24.8013 35.2222 24.8609 35.2812 24.944 35.2812H26.1939C26.2772 35.2812 26.3368 35.2222 26.3368 35.1398V32.2554C26.3368 31.867 26.2535 31.5255 26.0987 31.2548C25.944 30.9722 25.7417 30.7722 25.4916 30.6425L25.5035 30.6308Z" fill="#2B3278"/>
<path d="M32.359 30.4427C31.8352 30.4427 31.3352 30.6075 30.8949 30.949V28.9475C30.8949 28.8651 30.8353 28.8062 30.752 28.8062H29.5021C29.4188 28.8062 29.3594 28.8651 29.3594 28.9475V35.1518C29.3594 35.2342 29.4188 35.2931 29.5021 35.2931H30.752C30.8353 35.2931 30.8949 35.2342 30.8949 35.1518V32.1851C31.2163 31.9379 31.5495 31.8082 31.8829 31.7965C32.0733 31.7965 32.2161 31.8437 32.3232 31.9496C32.4303 32.0555 32.4899 32.2086 32.4899 32.4205V35.1518C32.4899 35.2342 32.5495 35.2931 32.6326 35.2931H33.8825C33.9659 35.2931 34.0255 35.2342 34.0255 35.1518V32.2676C34.0255 31.6906 33.8706 31.2315 33.5493 30.9253C33.228 30.6193 32.8352 30.4544 32.3472 30.4544L32.359 30.4427Z" fill="#2B3278"/>
<path d="M39.488 30.5605H38.2382C38.1548 30.5605 38.0954 30.6195 38.0954 30.7019V30.8785C37.7026 30.5842 37.2621 30.4429 36.7978 30.4429C36.1908 30.4429 35.6909 30.6901 35.2981 31.1727C34.9172 31.6438 34.7148 32.2323 34.7148 32.9269C34.7148 33.3743 34.7982 33.7864 34.9647 34.1631C35.1314 34.5398 35.3815 34.846 35.7028 35.0696C36.0241 35.2933 36.3932 35.411 36.7978 35.411C37.2621 35.411 37.7026 35.2579 38.0954 34.9754V35.152C38.0954 35.2344 38.1548 35.2933 38.2382 35.2933H39.488C39.5714 35.2933 39.6308 35.2344 39.6308 35.152V30.7254C39.6308 30.643 39.5714 30.5842 39.488 30.5842V30.5605ZM36.3694 32.2912C36.429 32.1264 36.5242 31.9968 36.6432 31.9026C36.7622 31.8202 36.8931 31.7732 37.0598 31.7732C37.2265 31.7732 37.4051 31.8202 37.5955 31.9026C37.7739 31.985 37.9406 32.0911 38.0835 32.2206V33.6451C37.9883 33.7275 37.881 33.8099 37.7739 33.8688C37.643 33.9393 37.5122 33.9982 37.393 34.0337C37.0835 34.1279 36.8218 34.0924 36.6313 33.9513C36.5121 33.8571 36.4169 33.7275 36.3575 33.5626C36.286 33.386 36.2623 33.1742 36.2623 32.9269C36.2623 32.6797 36.2979 32.4678 36.3694 32.2912Z" fill="#2B3278"/>
<path d="M44.2857 30.6308C43.8217 30.3835 43.1907 30.3718 42.5718 30.6308C42.3695 30.7132 42.179 30.8191 42.0004 30.9488V30.7132C42.0004 30.6308 41.9408 30.5719 41.8575 30.5719H40.6076C40.5244 30.5719 40.4648 30.6308 40.4648 30.7132V35.1398C40.4648 35.2222 40.5244 35.2812 40.6076 35.2812H41.8575C41.9408 35.2812 42.0004 35.2222 42.0004 35.1398V32.173C42.3336 31.9259 42.6789 31.7845 43.0002 31.7845C43.1788 31.7845 43.3215 31.8317 43.4287 31.9376C43.536 32.0436 43.5835 32.1967 43.5835 32.4085V35.1398C43.5835 35.2222 43.6431 35.2812 43.7264 35.2812H44.9761C45.0595 35.2812 45.119 35.2222 45.119 35.1398V32.2554C45.119 31.867 45.0357 31.5255 44.8809 31.2548C44.7262 30.9722 44.5239 30.7722 44.2739 30.6425L44.2857 30.6308Z" fill="#2B3278"/>
<path d="M58.3909 31.773C58.7362 31.4788 58.9029 31.0784 58.9029 30.5958C58.9029 30.066 58.7125 29.6187 58.3434 29.289C57.9744 28.9593 57.522 28.7944 56.9746 28.7944H54.0939C54.0106 28.7944 53.9512 28.8534 53.9512 28.9358V35.1401C53.9512 35.2225 54.0106 35.2814 54.0939 35.2814H57.2603C57.8435 35.2814 58.3434 35.1048 58.7362 34.7397C59.1409 34.3748 59.3433 33.9039 59.3433 33.3271C59.3433 32.9268 59.2361 32.5853 59.0219 32.2911C58.8552 32.0673 58.641 31.8907 58.3909 31.773ZM55.5699 32.5971H57.0458C57.2363 32.5971 57.3911 32.656 57.522 32.7737C57.6412 32.8915 57.7006 33.0562 57.7006 33.2682C57.7006 33.48 57.6412 33.6449 57.522 33.7626C57.403 33.8804 57.2484 33.9391 57.0458 33.9391H55.5699V32.5971ZM57.0936 31.1491C56.9865 31.255 56.8556 31.3022 56.6889 31.3022H55.5699V30.1365H56.6889C56.8556 30.1365 56.9865 30.1837 57.0936 30.2896C57.2007 30.3955 57.2484 30.5369 57.2484 30.7252C57.2484 30.9136 57.2007 31.0549 57.0936 31.1608V31.1491Z" fill="#2B3278"/>
<path d="M64.6531 30.5605H63.4032C63.3198 30.5605 63.2602 30.6195 63.2602 30.7019V30.8785C62.8674 30.5842 62.4271 30.4429 61.9629 30.4429C61.3559 30.4429 60.8559 30.6901 60.4631 31.1727C60.0822 31.6438 59.8799 32.2323 59.8799 32.9269C59.8799 33.6216 60.0703 34.2101 60.4631 34.6811C60.8559 35.1637 61.3559 35.411 61.9629 35.411C62.4271 35.411 62.8674 35.2579 63.2602 34.9754V35.152C63.2602 35.2344 63.3198 35.2933 63.4032 35.2933H64.6531C64.7364 35.2933 64.7958 35.2344 64.7958 35.152V30.7254C64.7958 30.643 64.7364 30.5842 64.6531 30.5842V30.5605ZM61.4392 32.9152C61.4392 32.5503 61.5105 32.2558 61.6653 32.0557C61.808 31.8556 61.9866 31.7615 62.2367 31.7615C62.4034 31.7615 62.5818 31.8084 62.7722 31.8909C62.9508 31.9733 63.1175 32.0792 63.2602 32.2088V33.6333C63.1056 33.7627 62.9508 33.8688 62.7722 33.9513C62.3913 34.1159 62.0462 34.1159 61.8201 33.9513C61.7009 33.8571 61.6057 33.7392 61.5463 33.5626C61.4748 33.386 61.4511 33.1742 61.4511 32.9269L61.4392 32.9152Z" fill="#2B3278"/>
<path d="M69.4498 30.6308C68.9855 30.3835 68.3547 30.3718 67.7356 30.6308C67.5333 30.7132 67.3428 30.8191 67.1643 30.9488V30.7132C67.1643 30.6308 67.1049 30.5719 67.0215 30.5719H65.7716C65.6883 30.5719 65.6289 30.6308 65.6289 30.7132V35.1398C65.6289 35.2222 65.6883 35.2812 65.7716 35.2812H67.0215C67.1049 35.2812 67.1643 35.2222 67.1643 35.1398V32.173C67.4977 31.9259 67.8428 31.7845 68.1643 31.7845C68.3429 31.7845 68.4856 31.8317 68.5927 31.9376C68.6998 32.0436 68.7475 32.1967 68.7475 32.4085V35.1398C68.7475 35.2222 68.8069 35.2812 68.8903 35.2812H70.1402C70.2235 35.2812 70.2831 35.2222 70.2831 35.1398V32.2554C70.2831 31.867 70.1998 31.5255 70.0449 31.2548C69.8903 30.9722 69.6878 30.7722 69.4379 30.6425L69.4498 30.6308Z" fill="#2B3278"/>
<path d="M79.0554 28.7944H77.6151C77.5555 28.7944 77.4961 28.8299 77.4842 28.8886L76.0795 33.1623L74.6631 28.8886C74.6631 28.8886 74.5917 28.7944 74.5321 28.7944H73.0917C73.0917 28.7944 72.9965 28.8181 72.9727 28.8534C72.949 28.8886 72.9371 28.9358 72.949 28.9828L75.1749 35.1873C75.1749 35.1873 75.2464 35.2814 75.3058 35.2814H76.8414C76.901 35.2814 76.9603 35.246 76.9722 35.1873L79.1982 28.9828C79.1982 28.9828 79.1982 28.8886 79.1744 28.8534C79.1506 28.8181 79.1029 28.7944 79.0554 28.7944Z" fill="#2B3278"/>
<path d="M81.0674 30.5601H79.8178C79.7388 30.5601 79.6748 30.6233 79.6748 30.7014V35.128C79.6748 35.2061 79.7388 35.2692 79.8178 35.2692H81.0674C81.1464 35.2692 81.2104 35.2061 81.2104 35.128V30.7014C81.2104 30.6233 81.1464 30.5601 81.0674 30.5601Z" fill="#2B3278"/>
<path d="M84.6613 35.6225C84.5423 35.5638 84.4114 35.5283 84.2803 35.5283C84.0661 35.5283 83.8875 35.599 83.7329 35.7404C83.5781 35.8815 83.5068 36.0581 83.5068 36.2701C83.5068 36.482 83.5781 36.6468 83.7329 36.7999C83.8875 36.9411 84.0661 37.0235 84.2803 37.0235C84.4948 37.0235 84.6734 36.9528 84.828 36.7999C84.9828 36.6586 85.0541 36.482 85.0541 36.2701C85.0541 36.1288 85.0184 36.0111 84.947 35.8935C84.8757 35.7873 84.7805 35.6932 84.6613 35.6225Z" fill="#2B3278"/>
<path d="M84.2933 30.4429C83.579 30.4429 82.9958 30.6902 82.5436 31.161C82.103 31.6319 81.877 32.2323 81.877 32.927C81.877 33.6216 82.103 34.2101 82.5554 34.6929C83.0076 35.1637 83.603 35.411 84.3171 35.411C85.0312 35.411 85.6382 35.1992 86.1859 34.7753C86.2336 34.7399 86.2573 34.6694 86.2336 34.6105L85.9358 33.8334C85.9358 33.8334 85.8883 33.7627 85.8527 33.751C85.8168 33.7393 85.7693 33.7393 85.7335 33.751C85.2573 33.9865 84.8289 34.1042 84.4361 34.1042C84.1742 34.1042 83.9718 34.0335 83.7932 33.8806C83.6386 33.751 83.5315 33.5627 83.4838 33.3508H86.4597C86.5312 33.3508 86.5905 33.2919 86.6024 33.2212C86.6024 33.1507 86.6024 33.0683 86.6024 32.9976C86.6024 32.2323 86.4001 31.5966 85.9954 31.1375C85.5789 30.6665 85.0075 30.4312 84.2933 30.4312V30.4429ZM83.5196 32.3148C83.579 32.1617 83.6505 32.0322 83.7695 31.9263C83.9124 31.7967 84.091 31.726 84.3171 31.726C84.7099 31.726 84.9479 31.9146 85.0431 32.3148H83.5078H83.5196Z" fill="#2B3278"/>
<path d="M90.731 34.9165L90.4691 34.0807C90.4691 34.0807 90.4335 34.01 90.3976 33.9983C90.362 33.9748 90.3264 33.9748 90.2905 33.9983C90.0763 34.0689 89.8859 34.1042 89.7312 34.1042C89.4335 34.1042 89.3026 33.9748 89.3026 33.6686V31.8085H90.3739C90.4572 31.8085 90.5168 31.7497 90.5168 31.6673V30.7137C90.5168 30.6312 90.4572 30.5723 90.3739 30.5723H89.3026V29.5127C89.3026 29.4305 89.2432 29.3716 89.1598 29.3716H87.91C87.8266 29.3716 87.767 29.4305 87.767 29.5127V30.5843L87.0173 30.7371C86.9458 30.7489 86.9102 30.8078 86.9102 30.8785V31.6556C86.9102 31.738 86.9696 31.7967 87.0529 31.7967H87.767V33.8217C87.767 34.3515 87.9219 34.7399 88.2313 35.0108C88.5289 35.2697 88.9098 35.3993 89.3741 35.3993C89.8383 35.3993 90.2549 35.2934 90.6714 35.0813C90.731 35.0461 90.7667 34.9754 90.7429 34.9165H90.731Z" fill="#2B3278"/>
<path d="M16.4677 13.7252C16.0511 14.3727 15.5035 14.8437 14.825 15.1144C15.6702 15.4087 16.7057 15.9503 17.289 16.7273C17.8723 17.5043 18.1699 18.3637 18.1699 19.2703C18.1699 21.0362 17.5985 22.3312 16.4677 23.1906C15.325 24.0383 13.4681 24.462 11.5159 24.462H4.4335C4.20734 24.462 4.01689 24.4033 3.88595 24.2619C3.75501 24.1325 3.68359 23.9559 3.68359 23.7204V7.3208C3.68359 7.09712 3.75501 6.90874 3.88595 6.77925C4.01689 6.64974 4.19543 6.5791 4.4335 6.5791H11.2064C15.1345 6.5791 17.0986 8.23908 17.0986 11.5472C17.0986 12.3478 16.8843 13.0777 16.4677 13.7252ZM11.1946 13.6781C11.7778 13.6781 12.2182 13.5015 12.5158 13.1484C12.8253 12.7952 12.9681 12.3478 12.9681 11.8063C12.9681 11.3589 12.8015 10.9704 12.4563 10.629C12.1111 10.2993 11.6945 10.1345 11.2064 10.1345H7.30219V13.6899H11.1827L11.1946 13.6781ZM12.7658 20.8478C13.349 20.8478 13.7895 20.6712 14.087 20.318C14.3965 19.9648 14.5394 19.5175 14.5394 18.9759C14.5394 18.5286 14.3727 18.1401 14.0275 17.7986C13.6823 17.469 13.2657 17.3042 12.7777 17.3042H7.31409V20.8596H12.7658V20.8478Z" fill="#2B3278"/>
<path d="M52.7126 13.7604C52.296 14.4079 51.7484 14.8788 51.0699 15.1496C51.9151 15.4439 52.9505 15.9855 53.5338 16.7625C54.1171 17.5395 54.4146 18.3989 54.4146 19.3054C54.4146 21.0713 53.8434 22.3663 52.7126 23.2258C51.5698 24.0734 49.7129 24.4973 47.7608 24.4973H40.6902C40.4641 24.4973 40.2736 24.4383 40.1428 24.2972C40.0117 24.1676 39.9404 23.991 39.9404 23.7554V7.35595C39.9404 7.13227 40.0117 6.94389 40.1428 6.8144C40.2736 6.6849 40.4522 6.61426 40.6902 6.61426H47.4632C51.3912 6.61426 53.3554 8.27424 53.3554 11.5824C53.3554 12.383 53.141 13.1129 52.7244 13.7604H52.7126ZM47.4395 13.7133C48.0227 13.7133 48.463 13.5367 48.7606 13.1835C49.07 12.8303 49.213 12.383 49.213 11.8414C49.213 11.394 49.0463 11.0055 48.7012 10.6641C48.3559 10.3345 47.9394 10.1697 47.4513 10.1697H43.5471V13.7251H47.4276L47.4395 13.7133ZM48.9988 20.8712C49.582 20.8712 50.0224 20.6946 50.3199 20.3414C50.6294 19.9882 50.7723 19.5409 50.7723 18.9993C50.7723 18.5519 50.6056 18.1634 50.2605 17.822C49.9152 17.4924 49.4987 17.3276 49.0107 17.3276H43.5352V20.883H48.9869L48.9988 20.8712Z" fill="#2B3278"/>
<path d="M64.4741 24.4971C64.224 24.4971 64.0336 24.2851 64.0336 24.0261V23.1315H63.9979C63.7479 23.6494 63.3194 23.8732 62.7243 24.144C62.2125 24.3793 61.653 24.4971 61.046 24.4971C59.5223 24.4971 58.201 24.0143 57.3439 22.8254C56.5227 21.6952 56.1895 20.7651 56.1895 19.1287C56.1895 17.4923 56.4393 16.5504 57.3679 15.4556C58.332 14.3254 59.5579 13.772 61.046 13.772C61.653 13.772 62.2125 13.8898 62.7124 14.1252C63.2838 14.3842 63.7122 14.6079 63.9979 15.1024H64.0336V14.2312C64.0336 13.9722 64.2359 13.7603 64.4741 13.7603H66.6167C66.8665 13.7603 67.057 13.9722 67.057 14.2312V24.0143C67.057 24.2734 66.8546 24.4854 66.6167 24.4854H64.4741V24.4971ZM63.3194 17.1744C62.8433 16.6564 62.2363 16.3974 61.4982 16.3974C60.7603 16.3974 60.1652 16.6682 59.689 17.2097C59.2247 17.7277 58.9986 18.387 58.9986 19.164C58.9986 19.941 59.2366 20.5532 59.7128 21.0712C60.2008 21.601 60.8078 21.86 61.5101 21.86C62.2125 21.86 62.8433 21.601 63.3194 21.0712C63.7956 20.5532 64.0336 19.8939 64.0336 19.1169C64.0336 18.3399 63.7956 17.6806 63.3194 17.1626V17.1744ZM63.9979 23.1315C63.6526 23.5907 63.3194 23.8732 62.7243 24.144C62.2125 24.3793 61.653 24.4971 61.046 24.4971" fill="#2B3278"/>
<path d="M76.7703 24.4975C76.4846 24.4975 76.2585 24.2855 76.2585 24.0265V18.6581C76.2585 17.9635 76.1514 17.4455 75.9253 17.1041C75.6396 16.6685 75.2705 16.4448 74.5562 16.4448C73.7946 16.4448 73.3303 17.0453 73.1042 17.3631C72.8064 17.7869 72.4136 18.4345 72.4136 19.1408V24.0147C72.4136 24.2737 72.1875 24.4858 71.9018 24.4858H69.4261C69.1404 24.4858 68.9141 24.2737 68.9141 24.0147V14.2551C68.9141 13.9961 69.1404 13.7842 69.4261 13.7842H71.6639C71.9496 13.7842 72.1757 13.9961 72.1757 14.2551V15.1263H72.2232C73.0208 14.1138 73.9611 13.7842 75.4133 13.7842C76.6036 13.7842 77.6036 14.0903 78.4129 14.7142C78.9247 15.1027 79.2819 15.6207 79.508 16.28C79.6747 16.798 79.7699 17.422 79.7699 18.1519V24.003C79.7699 24.262 79.5438 24.474 79.2581 24.474H76.7821L76.7703 24.4975Z" fill="#2B3278"/>
<path d="M87.4365 19.0585L90.5432 23.803C90.7337 24.0972 90.5195 24.4976 90.1623 24.4976H87.7815C87.6269 24.4976 87.4721 24.4152 87.4006 24.2738L84.6273 19.5883H84.5916V24.0502C84.5916 24.2975 84.3893 24.4976 84.1392 24.4976H81.9729C81.7228 24.4976 81.5205 24.2975 81.5205 24.0502V10.6056C81.5205 10.3583 81.7228 10.1582 81.9729 10.1582H84.1392C84.3893 10.1582 84.5916 10.3583 84.5916 10.6056V17.9872H84.6273L87.365 13.9491C87.4483 13.8431 87.5792 13.7725 87.7222 13.7725H90.1623C90.5432 13.7725 90.7574 14.2198 90.5074 14.5142L87.4721 18.5287C87.3412 18.6818 87.3294 18.8937 87.4365 19.0585Z" fill="#2B3278"/>
<path d="M24.027 16.5154L27.5028 23.7439C27.955 24.6975 29.2645 24.6975 29.7167 23.7439L33.2283 16.4683L37.5847 7.48562C37.6562 7.34435 37.6919 7.21484 37.6919 7.09712C37.6919 6.7557 37.4658 6.5791 37.0255 6.5791H34.2281C33.7876 6.5791 33.4782 6.76748 33.3115 7.15597L28.6097 17.0923L23.9318 7.15597C23.7651 6.77925 23.4557 6.5791 23.0152 6.5791H20.2418C19.8014 6.5791 19.5752 6.7557 19.5752 7.09712C19.5752 7.21484 19.6109 7.34435 19.6823 7.48562L24.027 16.5036V16.5154Z" fill="#2B3278"/>
<path d="M103.302 9.05189H96.3864L92.9346 3.13015C93.2203 2.96533 93.5893 2.94178 93.9106 3.13015L102.826 8.21603C103.148 8.40439 103.314 8.72226 103.314 9.05189H103.302Z" fill="#03C2F3"/>
<path d="M96.3876 9.05127H103.304C103.304 9.3809 103.137 9.69877 102.815 9.88715L93.8999 14.973C93.5786 15.1614 93.2095 15.1378 92.9238 14.973L96.3876 9.05127Z" fill="#2B3278"/>
<path d="M92.9343 3.12988L96.3982 9.05162L92.9343 14.9734C92.6486 14.8085 92.4463 14.5142 92.4463 14.1375V3.96576C92.4463 3.58902 92.6486 3.2947 92.9343 3.12988Z" fill="url(#paint0_radial_2924_37586)"/>
</g>
<defs>
<radialGradient id="paint0_radial_2924_37586" cx="0" cy="0" r="1" gradientUnits="userSpaceOnUse" gradientTransform="translate(93.339 4.17767) scale(9.83209 9.72437)">
<stop stop-color="#03C2F3"/>
<stop offset="1" stop-color="#2B3278"/>
</radialGradient>
</defs>
</svg>
