<svg width="135" height="40" viewBox="0 0 135 40" fill="none" xmlns="http://www.w3.org/2000/svg">
<path d="M13.8344 24.44L15.26 25.8656H25.9088V15.2168L24.4832 13.7912H13.8344V24.44ZM25.844 25.8656C27.1832 27.2048 27.9392 27.9608 29.2784 29.3H13.8128L10.4 25.8872V10.4H25.8872L29.3 13.8128V25.8656H25.844Z" fill="#5114FF"/>
<path d="M39.296 25.5L36.416 14.3H38.656L39.808 19.516C40.0427 20.636 40.16 21.9853 40.16 23.564H40.96C40.9813 22.2413 41.1147 21.1107 41.36 20.172L42.96 14.3H45.616L47.232 20.428C47.456 21.292 47.5733 22.3373 47.584 23.564H48.368C48.3787 21.9213 48.5013 20.5667 48.736 19.5L49.936 14.3H52.128L49.12 25.5H46.688L45.072 19.388C44.9013 18.7693 44.7947 18.236 44.752 17.788C44.7093 17.372 44.688 16.8067 44.688 16.092H43.888C43.888 16.6787 43.8613 17.2387 43.808 17.772C43.7547 18.316 43.648 18.8547 43.488 19.388L41.776 25.5H39.296ZM52.4081 19.916C52.3868 18.2307 52.9255 16.828 54.0241 15.708C55.1335 14.588 56.5415 14.0387 58.2481 14.06C59.9548 14.0387 61.3521 14.588 62.4401 15.708C63.5388 16.828 64.0775 18.2307 64.0561 19.916C64.0561 21.6333 63.5228 23.036 62.4561 24.124C61.4001 25.2013 59.9975 25.74 58.2481 25.74C56.5095 25.74 55.1015 25.2013 54.0241 24.124C52.9468 23.036 52.4081 21.6333 52.4081 19.916ZM61.8801 19.916C61.8801 18.7107 61.5495 17.7293 60.8881 16.972C60.2375 16.2147 59.3575 15.836 58.2481 15.836C57.1388 15.836 56.2535 16.2147 55.5921 16.972C54.9308 17.7293 54.6001 18.7107 54.6001 19.916C54.6001 21.1 54.9308 22.0707 55.5921 22.828C56.2535 23.5853 57.1388 23.964 58.2481 23.964C59.3575 23.964 60.2375 23.5853 60.8881 22.828C61.5495 22.0707 61.8801 21.1 61.8801 19.916ZM72.9255 25.5L69.1175 20.316L67.6935 21.772V25.5H65.6135V14.3H67.6935V16.412C67.6935 17.0413 67.6188 17.548 67.4695 17.932C67.3308 18.316 67.1122 18.684 66.8135 19.036L67.3735 19.564L72.1415 14.3H74.9415L70.5415 18.828L75.5815 25.5H72.9255ZM76.2235 25.5V14.3H84.4475V16.092H78.3035V18.844H82.9115V20.604H78.3035V23.724H84.4475V25.5H76.2235ZM86.0366 25.5V14.3H91.2526C92.4046 14.3 93.3113 14.5773 93.9726 15.132C94.6446 15.676 94.9806 16.3907 94.9806 17.276C94.9806 18.2467 94.6713 18.9133 94.0526 19.276C93.4553 19.6173 92.698 19.8147 91.7806 19.868V20.636C92.698 20.6573 93.3753 20.8173 93.8126 21.116C94.25 21.4147 94.538 21.964 94.6766 22.764L95.1886 25.5H92.9486L92.5646 22.94C92.4686 22.2573 92.2446 21.7827 91.8926 21.516C91.5406 21.2387 90.9966 21.1 90.2606 21.1H88.1166V25.5H86.0366ZM88.1166 19.34H90.8846C91.482 19.34 91.9513 19.2013 92.2926 18.924C92.6446 18.6467 92.8206 18.2413 92.8206 17.708C92.8206 17.1853 92.6446 16.7853 92.2926 16.508C91.9513 16.2307 91.482 16.092 90.8846 16.092H88.1166V19.34ZM106.054 25.5V14.3H110.15C111.771 14.2787 113.131 14.7853 114.23 15.82C115.328 16.8547 115.867 18.1933 115.846 19.836C115.846 21.5533 115.307 22.9293 114.23 23.964C113.152 24.988 111.776 25.5 110.102 25.5H106.054ZM108.134 23.724H109.942C112.438 23.724 113.686 22.4387 113.686 19.868C113.686 18.6947 113.376 17.772 112.758 17.1C112.139 16.428 111.238 16.092 110.054 16.092H108.134V23.724ZM116.453 22.444L118.421 21.692C118.603 22.396 118.939 22.9613 119.429 23.388C119.931 23.804 120.576 24.012 121.365 24.012C122.112 24.012 122.677 23.8733 123.061 23.596C123.445 23.308 123.637 22.9187 123.637 22.428C123.637 21.6173 122.997 21.1 121.717 20.876L120.293 20.636C119.205 20.444 118.384 20.0867 117.829 19.564C117.285 19.0413 117.013 18.3107 117.013 17.372C117.013 16.4227 117.392 15.6333 118.149 15.004C118.917 14.3747 119.941 14.06 121.221 14.06C122.427 14.06 123.408 14.332 124.165 14.876C124.923 15.4093 125.424 16.0813 125.669 16.892L123.733 17.644C123.349 16.4067 122.491 15.788 121.157 15.788C120.507 15.788 120.005 15.9267 119.653 16.204C119.312 16.4813 119.141 16.8387 119.141 17.276C119.141 18.012 119.669 18.476 120.725 18.668L122.181 18.924C123.323 19.116 124.208 19.4947 124.837 20.06C125.477 20.6253 125.797 21.3613 125.797 22.268C125.797 23.3027 125.408 24.14 124.629 24.78C123.861 25.42 122.763 25.74 121.333 25.74C120.011 25.74 118.928 25.436 118.085 24.828C117.253 24.22 116.709 23.4253 116.453 22.444Z" fill="#1E2022"/>
</svg>
