<svg width="105" height="40" viewBox="0 0 105 40" fill="none" xmlns="http://www.w3.org/2000/svg">
<path d="M21.0591 18.8941L20.5094 18.3441C18.4281 16.2634 18.4547 12.9177 20.5701 10.8705L26.6623 4.97327C27.3873 4.27224 28.4166 3.9674 29.4146 4.1585L29.4733 4.16969C31.2693 4.51461 31.9375 6.69881 30.6334 7.96197C28.6118 9.9187 26.5912 11.8754 24.5696 13.8322C24.2303 14.1612 24.2256 14.6982 24.5601 15.0329L24.5725 15.045C24.907 15.3787 25.4529 15.3834 25.7932 15.0543C26.213 14.6479 26.6329 14.2414 27.0527 13.835C28.4753 12.4581 30.8845 13.2971 31.1091 15.2482C31.111 15.2678 31.1139 15.2883 31.1158 15.3079C31.1982 16.0266 30.9405 16.7426 30.4173 17.2506C29.8306 17.8184 29.2449 18.3861 28.6582 18.9538C26.5438 21.0019 23.1404 20.9758 21.0591 18.8951V18.8941Z" fill="#1890FF"/>
<path opacity="0.7" d="M18.208 18.4021L17.6489 18.9428C15.5335 20.99 12.132 20.9639 10.0507 18.8831L4.05516 12.8908C3.34245 12.1777 3.03253 11.1653 3.22682 10.1837L3.23819 10.1259C3.58886 8.35929 5.80946 7.70208 7.09367 8.98482C9.08302 10.9732 11.0724 12.9607 13.0617 14.9492C13.3963 15.2829 13.9422 15.2876 14.2824 14.9585L14.2947 14.9464C14.634 14.6173 14.6388 14.0803 14.3042 13.7457C13.891 13.3327 13.4778 12.9197 13.0646 12.5067C11.6647 11.1075 12.5177 8.73778 14.5014 8.51684C14.5213 8.51498 14.5421 8.51218 14.562 8.51031C15.2927 8.42921 16.0206 8.68278 16.5371 9.19736C17.1143 9.77441 17.6915 10.3505 18.2687 10.9276C20.3509 13.0074 20.3244 16.355 18.209 18.4021H18.208Z" fill="#1890FF"/>
<path opacity="0.7" d="M20.5592 21.6977L21.1183 21.157C23.2337 19.1098 26.6353 19.1359 28.7165 21.2166L34.7121 27.2089C35.4248 27.9221 35.7347 28.9345 35.5404 29.9161L35.529 29.9739C35.1784 31.7405 32.9578 32.3977 31.6735 31.115C29.6842 29.1265 27.6949 27.139 25.7055 25.1506C25.3709 24.8169 24.825 24.8122 24.4848 25.1413L24.4725 25.1534C24.1332 25.4825 24.1284 26.0194 24.463 26.3541C24.8762 26.7671 25.2894 27.18 25.7027 27.593C27.1025 28.9923 26.2495 31.362 24.2659 31.5829C24.246 31.5848 24.2251 31.5876 24.2052 31.5895C23.4745 31.6706 22.7466 31.417 22.2301 30.9024C21.6529 30.3254 21.0757 29.7493 20.4985 29.1722C18.4163 27.0924 18.4428 23.7448 20.5582 21.6977H20.5592Z" fill="#1890FF"/>
<path d="M17.7094 21.2062L18.2591 21.7562C20.3404 23.8369 20.3138 27.1827 18.1985 29.2298L12.1063 35.1271C11.3812 35.8281 10.3519 36.1329 9.35396 35.9418L9.2952 35.9307C7.49919 35.5857 6.83102 33.4015 8.13514 32.1384C10.1567 30.1816 12.1773 28.2249 14.1989 26.2682C14.5382 25.9391 14.5429 25.4021 14.2084 25.0675L14.1961 25.0554C13.8615 24.7216 13.3156 24.717 12.9754 25.046C12.5555 25.4525 12.1356 25.8589 11.7158 26.2654C10.2932 27.6423 7.88398 26.8033 7.65936 24.8521C7.65747 24.8325 7.65463 24.812 7.65273 24.7925C7.57028 24.0737 7.82807 23.3578 8.35123 22.8497C8.9379 22.282 9.52362 21.7143 10.1103 21.1465C12.2247 19.0985 15.6281 19.1246 17.7094 21.2053V21.2062Z" fill="#1890FF"/>
<path d="M18.4315 28.9902C16.5994 26.9841 16.6051 23.9376 18.4315 21.937C20.2635 23.9441 20.2568 26.9906 18.4315 28.9902Z" fill="#1890FF"/>
<path d="M48.8439 15.3618V21.4576C48.8439 21.9023 48.7586 22.3218 48.588 22.717C48.4174 23.1123 48.1833 23.4563 47.8857 23.749C47.5881 24.0417 47.2412 24.272 46.8441 24.4398C46.448 24.6076 46.0233 24.6915 45.5713 24.6915H41.9025C41.4504 24.6915 41.0268 24.6076 40.6297 24.4398C40.2335 24.272 39.8857 24.0417 39.5881 23.749C39.2905 23.4563 39.0564 23.1123 38.8858 22.717C38.7152 22.3218 38.6299 21.9014 38.6299 21.4576V15.3618H41.059V21.5555C41.059 21.783 41.1414 21.9778 41.3073 22.1409C41.4722 22.3031 41.6712 22.3852 41.9025 22.3852H45.5713C45.8139 22.3852 46.0177 22.3041 46.1826 22.1409C46.3475 21.9787 46.4309 21.783 46.4309 21.5555V15.3618H48.8439Z" fill="#1890FF"/>
<path d="M57.4551 15.314C57.9072 15.314 58.3308 15.3979 58.7279 15.5657C59.125 15.7335 59.4719 15.9637 59.7695 16.2564C60.0671 16.5492 60.3012 16.8904 60.4718 17.281C60.6424 17.6706 60.7277 18.0883 60.7277 18.5329V24.6287H58.3147V18.4518C58.3147 18.2132 58.2322 18.0127 58.0664 17.8505C57.9015 17.6883 57.6967 17.6063 57.4551 17.6063H53.7863C53.555 17.6063 53.3569 17.6874 53.1911 17.8505C53.0262 18.0127 52.9428 18.2141 52.9428 18.4518V24.6287H50.5137V18.5329C50.5137 18.0883 50.599 17.6716 50.7696 17.281C50.9402 16.8904 51.1743 16.5492 51.4719 16.2564C51.7695 15.9637 52.1163 15.7335 52.5134 15.5657C52.9106 15.3979 53.3342 15.314 53.7863 15.314H57.4551Z" fill="#1890FF"/>
<path d="M62.3291 15.3618H64.7582V24.5945L62.3291 24.6272V15.3618Z" fill="#1890FF"/>
<path d="M73.7501 15.3295C74.2022 15.3295 74.6258 15.4134 75.0229 15.5812C75.42 15.749 75.7669 15.9793 76.0645 16.272C76.3621 16.5647 76.5962 16.9059 76.7668 17.2965C76.9374 17.6871 77.0227 18.1038 77.0227 18.5485V21.4421C77.0227 21.8868 76.9535 22.3063 76.8161 22.7016C76.6777 23.0978 76.4825 23.4408 76.2294 23.7335C75.9754 24.0262 75.6702 24.2565 75.312 24.4243C74.9537 24.5921 74.549 24.676 74.097 24.676H69.9818C69.761 24.676 69.5524 24.635 69.3534 24.5539C69.1553 24.4728 68.9677 24.3563 68.7914 24.2043V28.6417H66.3623V18.5476C66.3623 18.1038 66.4476 17.6862 66.6182 17.2956C66.7888 16.9059 67.0229 16.5638 67.3205 16.2711C67.6181 15.9784 67.965 15.7481 68.3621 15.5803C68.7592 15.4125 69.1828 15.3286 69.6349 15.3286H73.7501V15.3295ZM74.6097 18.4665C74.6097 18.239 74.5272 18.0442 74.3614 17.881C74.1965 17.7188 73.9918 17.6368 73.7501 17.6368H69.6349C69.4037 17.6368 69.2056 17.7319 69.0397 17.9211C68.8748 18.1113 68.7914 18.3192 68.7914 18.5466V21.5372C68.7914 21.7647 68.8739 21.9595 69.0397 22.1226C69.2046 22.2849 69.4037 22.3669 69.6349 22.3669H73.7501C73.9927 22.3669 74.1965 22.2858 74.3614 22.1226C74.5263 21.9604 74.6097 21.7647 74.6097 21.5372V18.4646V18.4665Z" fill="#1890FF"/>
<path d="M85.1684 15.3618C85.6205 15.3618 86.0442 15.4457 86.4413 15.6135C86.8374 15.7813 87.1853 16.0116 87.4829 16.3043C87.7805 16.597 88.0146 16.9382 88.1852 17.3288C88.3558 17.7194 88.4411 18.1361 88.4411 18.5808V21.4902C88.4411 21.9349 88.3558 22.3516 88.1852 22.7422C88.0146 23.1319 87.7805 23.474 87.4829 23.7667C87.1853 24.0594 86.8384 24.2897 86.4413 24.4575C86.0442 24.6253 85.6205 24.7092 85.1684 24.7092H81.5158C81.0637 24.7092 80.6401 24.6412 80.2429 24.506C79.8458 24.3708 79.499 24.1788 79.2014 23.9289C78.9038 23.68 78.6697 23.3761 78.4991 23.0191C78.3285 22.6611 78.2432 22.2603 78.2432 21.8165V21.4912C78.2432 21.177 78.3038 20.8685 78.4251 20.5645C78.5465 20.2616 78.7085 19.9875 78.9123 19.7433C79.1161 19.499 79.3587 19.3014 79.6392 19.1504C79.9197 18.9984 80.2145 18.9229 80.5235 18.9229H86.0271V18.5006C86.0271 18.2731 85.9447 18.0783 85.7788 17.9152C85.6139 17.753 85.4092 17.6709 85.1675 17.6709H79.1682L80.0439 15.3627H85.1675L85.1684 15.3618ZM86.0281 20.8722H81.4504C81.2409 20.8722 81.059 20.943 80.9054 21.0838C80.7509 21.2246 80.6742 21.3765 80.6742 21.5387V21.6198C80.6742 21.8585 80.7566 22.0347 80.9225 22.1484C81.0883 22.2621 81.2864 22.319 81.5177 22.319H85.1703C85.413 22.319 85.6167 22.2379 85.7816 22.0747C85.9466 21.9125 86.03 21.7168 86.03 21.4893V20.8712L86.0281 20.8722Z" fill="#1890FF"/>
<path d="M100.323 15.3618V24.9851C100.323 25.5706 100.21 26.1234 99.9849 26.6436C99.7594 27.1637 99.4475 27.6187 99.0514 28.0093C98.6543 28.3989 98.1918 28.7056 97.6629 28.9275C97.1341 29.1494 96.572 29.2603 95.9769 29.2603H90.5064L91.3821 26.8869H95.9769C96.2413 26.8869 96.4915 26.8356 96.7284 26.7321C96.9654 26.6287 97.1691 26.4935 97.3397 26.3257C97.5103 26.1579 97.6478 25.9575 97.753 25.7244C97.8572 25.4913 97.9103 25.2452 97.9103 24.9851V24.2534C97.7226 24.3941 97.5302 24.5051 97.3322 24.5871C97.1341 24.6682 96.9246 24.7092 96.7038 24.7092H92.9355C92.4834 24.7092 92.0787 24.6253 91.7205 24.4575C91.3622 24.2897 91.057 24.0594 90.803 23.7667C90.549 23.474 90.3538 23.1328 90.2164 22.7422C90.078 22.3516 90.0098 21.9349 90.0098 21.4902V15.3618H92.4389V21.5713C92.4389 21.81 92.5213 22.0104 92.6872 22.1726C92.8521 22.3348 93.0511 22.4169 93.2824 22.4169H97.0507C97.2933 22.4169 97.4971 22.3358 97.662 22.1726C97.8269 22.0104 97.9103 21.81 97.9103 21.5713V15.3618H100.323Z" fill="#1890FF"/>
<path d="M65.4411 11.9826C65.0165 11.0206 63.8792 10.5787 62.9011 10.9963C61.923 11.414 61.4738 12.5326 61.8984 13.4947C62.323 14.4567 63.4603 14.8986 64.4384 14.481C65.4155 14.0624 65.8638 12.9447 65.4411 11.9826ZM62.3808 13.2887C62.2168 12.9167 62.2263 12.4925 62.4083 12.129C62.4424 12.0618 62.5258 12.0348 62.5931 12.0684C62.6604 12.1019 62.6878 12.1812 62.6556 12.2483C62.5097 12.541 62.5011 12.8813 62.6338 13.1805C62.6641 13.2495 62.6319 13.3287 62.5618 13.3586C62.4917 13.3884 62.4111 13.3567 62.3808 13.2877V13.2887ZM62.7845 13.1171C62.5722 12.6361 62.7968 12.0768 63.2859 11.8679C63.7749 11.6591 64.3436 11.8801 64.5559 12.3611C64.7682 12.8421 64.5436 13.4015 64.0545 13.6103C63.5655 13.8182 62.9968 13.5981 62.7845 13.1171ZM64.6838 13.2281C64.8298 12.9353 64.8383 12.5951 64.7056 12.2958C64.6753 12.2269 64.7075 12.1476 64.7777 12.1178C64.8478 12.0879 64.9283 12.1196 64.9587 12.1886C65.1226 12.5606 65.1132 12.9847 64.9312 13.3483C64.8971 13.4154 64.8137 13.4425 64.7464 13.4089C64.6791 13.3753 64.6516 13.2961 64.6838 13.229V13.2281Z" fill="#1890FF"/>
<path d="M63.8342 13.1126C63.6248 13.202 63.3812 13.1079 63.2902 12.9009C63.1993 12.694 63.295 12.4553 63.5054 12.3658C63.7158 12.2764 63.9584 12.3705 64.0494 12.5775C64.1404 12.7835 64.0437 13.0231 63.8342 13.1126Z" fill="#1890FF"/>
</svg>
